<mxfile host="app.diagrams.net" modified="2023-04-18T03:26:49.635Z" agent="Mozilla/5.0 (Windows NT 10.0; Win64; x64) AppleWebKit/537.36 (KHTML, like Gecko) Chrome/111.0.0.0 Safari/537.36" version="21.1.8" etag="cnkRbNNHbV1m3oY3xHSd" type="github">
  <diagram name="Page-1" id="Z9Bg5AFoWiFdJnXWZfzq">
    <mxGraphModel>
      <root>
        <mxCell id="0" />
        <mxCell id="1" parent="0" />
      </root>
    </mxGraphModel>
  </diagram>
</mxfile>
